# xmcd
#
# Track frame offsets:
#	183
#	13170
#	27350
#	41975
#	56795
#	70088
#	84375
#	97418
#	110585
#	124290
#	136755
#	150983
#	165850
#	180558
#	195223
#	208358
#	221885
#	235063
#	246960
#	258243
#	269208
#	282208
#	298528
#	310710
#
# Disc length: 4324 seconds
#
# Revision: 1
# Processed by: cddbd v1.4b42PL1 Copyright (c) Steve Scherf et al.
# Submitted via: audiograbber 1.80
#
DISCID=6710e218
DTITLE=Sidney Bechet - Freight Train Blues
DYEAR=1900
DGENRE=
TTITLE0=Sweetie Dear
TTITLE1=I Want You Tonight
TTITLE2=I've Found A New Baby
TTITLE3=Lay Your Racket
TTITLE4=Maple Leaf Rag
TTITLE5=Shag
TTITLE6=Okey Doke
TTITLE7=Characteristic Blues
TTITLE8=Viper Mad
TTITLE9=Blackstick
TTITLE10=When The Sun Sets Down South
TTITLE11=Sweet Patootie
TTITLE12=Freight Train Blues
TTITLE13=Trixie Blues
TTITLE14=My Daddy Rocks Me (Part I)
TTITLE15=My Daddy Rocks Me (Part II)
TTITLE16=What A Dream
TTITLE17=Hold Tight
TTITLE18=Jungle Drums
TTITLE19=Chant In The Night
TTITLE20=Ja-Da
TTITLE21=Really The Blues
TTITLE22=When You And I Were Young Maggie
TTITLE23=Weary Blues
EXTD=
EXTT0=
EXTT1=
EXTT2=
EXTT3=
EXTT4=
EXTT5=
EXTT6=
EXTT7=
EXTT8=
EXTT9=
EXTT10=
EXTT11=
EXTT12=
EXTT13=
EXTT14=
EXTT15=
EXTT16=
EXTT17=
EXTT18=
EXTT19=
EXTT20=
EXTT21=
EXTT22=
EXTT23=
PLAYORDER=
